<?xml version="1.0" encoding="utf-8"?>
    <svg xmlns="http://www.w3.org/2000/svg" xmlns:xlink="http://www.w3.org/1999/xlink">
        <symbol viewBox="0 0 26.9 32" id="apple" xmlns="http://www.w3.org/2000/svg">
            <path d="M26.31 24.91A17.13 17.13 0 0 1 24.6 28a15.71 15.71 0 0 1-2.22 2.68A4.4 4.4 0 0 1 19.54 32a7.3 7.3 0 0 1-2.62-.63 7.62 7.62 0 0 0-2.83-.64 7.74 7.74 0 0 0-2.9.64 8.76 8.76 0 0 1-2.5.67 4.1 4.1 0 0 1-2.91-1.29A16.93 16.93 0 0 1 3.47 28 19.3 19.3 0 0 1 1 23.08a17.73 17.73 0 0 1-1-5.81 10.55 10.55 0 0 1 1.38-5.54 8 8 0 0 1 6.85-4.05 9.27 9.27 0 0 1 3 .71 9.8 9.8 0 0 0 2.41.71 14.94 14.94 0 0 0 2.68-.83A9.07 9.07 0 0 1 20 7.62a7.76 7.76 0 0 1 6.06 3.2 6.73 6.73 0 0 0-3.58 6.12A6.83 6.83 0 0 0 24.69 22a7.79 7.79 0 0 0 2.21 1.46c-.21.47-.39 1-.59 1.42zM20.13.63a6.85 6.85 0 0 1-1.75 4.48 6 6 0 0 1-5 2.45 5.86 5.86 0 0 1 0-.61 7 7 0 0 1 1.86-4.52 7.26 7.26 0 0 1 2.25-1.7A6.62 6.62 0 0 1 20.07 0a2.32 2.32 0 0 1 .06.63z" />
        </symbol>
        <symbol viewBox="0 0 25 33.33" id="arrow-down-o" xmlns="http://www.w3.org/2000/svg">
            <path d="M12.5 30.2V0m11 17l-11 13.2L1.55 17" fill="none" stroke="currentColor" stroke-miterlimit="10" stroke-width="4" />
        </symbol>
        <symbol viewBox="0 0 52 53" id="arrow-large" xmlns="http://www.w3.org/2000/svg">
            <path d="M42.38 35L24.67 52.66l-8.31-8.3 12-12H1.42V20.94h26.94l-12-12L24.67.63l17.71 17.71.09-.09 8.3 8.31-.09.09.09.09-8.3 8.26z" fill="none" stroke="#2128bd" />
        </symbol>
        <symbol viewBox="0 0 33.33 25" id="arrow-left-o" xmlns="http://www.w3.org/2000/svg">
            <path d="M33.33 12.5H3.17m13.16 11l-13.16-11L16.33 1.55" fill="none" stroke="currentColor" stroke-miterlimit="10" stroke-width="4" />
        </symbol>
        <symbol viewBox="0 0 33.33 25" id="arrow-right-o" xmlns="http://www.w3.org/2000/svg">
            <path d="M30.16 12.5H0M17 1.55l13.16 11L17 23.45" fill="none" stroke="currentColor" stroke-miterlimit="10" stroke-width="4" />
        </symbol>
        <symbol viewBox="0 0 25 33.33" id="arrow-up-o" xmlns="http://www.w3.org/2000/svg">
            <path d="M12.5 33.33V3.17M1.55 16.33l11-13.16 11 13.16" fill="none" stroke="currentColor" stroke-miterlimit="10" stroke-width="4" />
        </symbol>
        <symbol viewBox="0 0 32 24" id="check-o" xmlns="http://www.w3.org/2000/svg">
            <path fill="none" stroke="currentColor" stroke-miterlimit="10" d="M1.45 11.85l9.28 9.25L30.55 1.5" />
        </symbol>
        <symbol viewBox="0 0 32 19.28" id="chevron-down-o" xmlns="http://www.w3.org/2000/svg">
            <path fill="none" stroke="currentColor" stroke-miterlimit="10" stroke-width="4" d="M1.5 1.4l14.63 15 14.37-15" />
        </symbol>
        <symbol viewBox="0 0 19.28 32" id="chevron-left-o" xmlns="http://www.w3.org/2000/svg">
            <path fill="none" stroke="currentColor" stroke-miterlimit="10" stroke-width="4" d="M17.88 1.5l-15 14.37 15 14.63" />
        </symbol>
        <symbol viewBox="0 0 19.28 32" id="chevron-right-o" xmlns="http://www.w3.org/2000/svg">
            <path fill="none" stroke="currentColor" stroke-miterlimit="10" stroke-width="4" d="M1.4 30.5l15-14.63L1.4 1.5" />
        </symbol>
        <symbol viewBox="0 0 32 19.28" id="chevron-up-o" xmlns="http://www.w3.org/2000/svg">
            <path fill="none" stroke="currentColor" stroke-miterlimit="10" stroke-width="4" d="M30.5 17.88l-14.37-15-14.63 15" />
        </symbol>
        <symbol viewBox="0 0 32 32" id="dribbble" xmlns="http://www.w3.org/2000/svg">
            <path d="M16 0a16 16 0 1 0 16 16A16 16 0 0 0 16 0zm10.43 7.55a13.38 13.38 0 0 1 3 8 22.6 22.6 0 0 0-9-.09c-.48-1.12-1-2.2-1.48-3.21a26.68 26.68 0 0 0 7.48-4.7zm-1.81-1.84A23.78 23.78 0 0 1 17.75 10a62.59 62.59 0 0 0-4.55-7.14 13.57 13.57 0 0 1 2.8-.29 13.35 13.35 0 0 1 8.62 3.14zm-14-2a60.23 60.23 0 0 1 4.68 7.22 42.76 42.76 0 0 1-12.36 1.94 13.5 13.5 0 0 1 7.67-9.17zm-8 11.75h.08a46.59 46.59 0 0 0 8.14-.75 39.89 39.89 0 0 0 5.7-1.47c.47.92.93 1.9 1.38 2.93a24 24 0 0 0-6.28 3.11 28.44 28.44 0 0 0-5.84 5.4A13.35 13.35 0 0 1 2.57 16c0-.18.01-.37.01-.55zm5 11a25.86 25.86 0 0 1 5.52-5.13 21.88 21.88 0 0 1 5.72-2.82 49.37 49.37 0 0 1 2.7 9.7A13.21 13.21 0 0 1 16 29.43a13.35 13.35 0 0 1-8.39-2.96zm16.31.37a53.48 53.48 0 0 0-2.53-8.92 20.31 20.31 0 0 1 7.86.26 13.46 13.46 0 0 1-5.34 8.67z" />
        </symbol>
        <symbol viewBox="0 0 16.76 32" id="facebook" xmlns="http://www.w3.org/2000/svg">
            <path d="M13.71 5.33h3.05V.15C16.3.15 14.48 0 12.34 0 7.92 0 5 2.59 5 7.47v4.26H0v5.64h5V32h6V17.37h4.88l.76-5.64h-5.82V8.08c0-1.68.46-2.75 2.89-2.75z" />
        </symbol>
        <symbol viewBox="0 0 32 32" id="github" xmlns="http://www.w3.org/2000/svg">
            <path d="M16.05 0A16.22 16.22 0 0 0 0 16.43 16.38 16.38 0 0 0 11 32c.86.11 1.07-.33 1.07-.76v-2.87c-4.49 1-5.45-2.19-5.45-2.19a4.63 4.63 0 0 0-1.82-2.41c-1.5-1 .1-1 .1-1a3.37 3.37 0 0 1 2.46 1.65c1.4 2.51 3.75 1.75 4.71 1.31a3.05 3.05 0 0 1 1.07-2.19c-3.53-.44-7.27-1.86-7.27-8.11a6.64 6.64 0 0 1 1.6-4.38 5.84 5.84 0 0 1 .13-4.37S9 6.24 12 8.32a16.92 16.92 0 0 1 4.06-.54 17 17 0 0 1 4.07.54c3.1-2.08 4.39-1.64 4.39-1.64a5.82 5.82 0 0 1 .1 4.38 6.13 6.13 0 0 1 1.61 4.38c0 6.36-3.75 7.67-7.28 8.11A4.25 4.25 0 0 1 20 26.62v4.49a.77.77 0 0 0 1.07.76A16.29 16.29 0 0 0 32 16.32 16 16 0 0 0 16.05 0z" />
        </symbol>
        <symbol viewBox="0 0 29 32" id="gplay" xmlns="http://www.w3.org/2000/svg">
            <path d="M.75 31.55l13.88-14 4.9 4.94L3 31.74a2 2 0 0 1-2 0zm12.48-15.41L0 29.49V2.79zm8.27-5.52l6.5 3.63a2 2 0 0 1 0 3.5l-6.64 3.73L16 16.14zM.61.58A1.78 1.78 0 0 1 1 .27a2 2 0 0 1 2 0l16.7 9.34-5.07 5.12z" />
        </symbol>
        <symbol viewBox="0 0 29.07 32" id="gplay-c" xmlns="http://www.w3.org/2000/svg">
            <path d="M.58.49A2.47 2.47 0 0 0 0 2.24v27.52a2.47 2.47 0 0 0 .58 1.75l.1.08 15.59-15.41v-.36L.68.4z" fill="#00ceff" />
            <path d="M21.47 21.32l-5.2-5.14v-.36l5.2-5.14.12.06 6.16 3.47c1.76 1 1.76 2.6 0 3.59l-6.16 3.45z" fill="#ffe300" />
            <path d="M21.59 21.25L16.27 16 .58 31.51a2.08 2.08 0 0 0 2.62.07l18.39-10.33" fill="#ff3a44" />
            <path d="M21.59 10.74L3.2.41A2.09 2.09 0 0 0 .58.49L16.27 16z" fill="#00f085" />
        </symbol>
        <symbol viewBox="0 0 32 30.84" id="heart" xmlns="http://www.w3.org/2000/svg">
            <path d="M28 14.83l-12 14-12-14A8.44 8.44 0 0 1 4 4.2 6 6 0 0 1 8.54 2a6 6 0 0 1 4.55 2.2L15 6.4a1.34 1.34 0 0 0 2 0l1.89-2.2a5.82 5.82 0 0 1 9.11 0 8.44 8.44 0 0 1 0 10.63z" fill="none" stroke="currentColor" stroke-linejoin="round" stroke-width="4" />
        </symbol>
        <symbol viewBox="0 0 32 32" id="instagram" xmlns="http://www.w3.org/2000/svg">
            <path d="M3 10v12a7.07 7.07 0 0 0 7 7h12a7.07 7.07 0 0 0 7-7V10a7.07 7.07 0 0 0-7-7H10a7.07 7.07 0 0 0-7 7zm-3 0A9.81 9.81 0 0 1 10 0h12a9.81 9.81 0 0 1 10 10v12a9.81 9.81 0 0 1-10 10H10A9.81 9.81 0 0 1 0 22zm16 10.71A4.71 4.71 0 1 0 11.29 16 4.66 4.66 0 0 0 16 20.71zm0 2.82A7.53 7.53 0 1 1 23.53 16 7.55 7.55 0 0 1 16 23.53zm9.41-15.06a1.88 1.88 0 0 1-3.76 0 1.88 1.88 0 1 1 3.76 0z" />
        </symbol>
        <symbol viewBox="0 0 32 32" id="instagram-c" xmlns="http://www.w3.org/2000/svg">
            <defs>
                <linearGradient id="asa" x1="2.48" y1="33.08" x2="1.19" y2="31.59" gradientTransform="matrix(19.89 0 0 -19.89 -19.93 658.51)" gradientUnits="userSpaceOnUse">
                    <stop offset="0" stop-color="#4c65d0" />
                    <stop offset=".45" stop-color="#be337c" />
                    <stop offset="1" stop-color="#f4ad50" />
                </linearGradient>
            </defs>
            <path d="M23.17 0A8.84 8.84 0 0 1 32 8.83v14.34A8.84 8.84 0 0 1 23.17 32H8.83A8.84 8.84 0 0 1 0 23.17V8.83A8.84 8.84 0 0 1 8.83 0zm6 23.17V8.83a6 6 0 0 0-6-6H8.83a6 6 0 0 0-6 6v14.34a6 6 0 0 0 6 6h14.34a6 6 0 0 0 5.99-6zM16 7.75A8.25 8.25 0 1 1 7.75 16 8.26 8.26 0 0 1 16 7.75zm0 13.66A5.41 5.41 0 1 0 10.59 16 5.42 5.42 0 0 0 16 21.41zm8.59-16.06a2.08 2.08 0 1 1-1.47.65 2.06 2.06 0 0 1 1.47-.65z" fill="url(#asa)" />
        </symbol>
        <symbol viewBox="0 0 32 30.48" id="linkedin" xmlns="http://www.w3.org/2000/svg">
            <path d="M32 18.72v11.76h-7V19.59c0-2.83-1-4.59-3.45-4.59a3.1 3.1 0 0 0-3.26 2.39 3.24 3.24 0 0 0-.22 1.53v11.56h-7V10h7v2.83a7 7 0 0 1 6.09-3.48c4.57.01 7.84 3.06 7.84 9.37zM3.92 0C1.52 0 0 1.52 0 3.48A3.5 3.5 0 0 0 3.7 7c2.4 0 3.92-1.56 3.92-3.52A3.37 3.37 0 0 0 3.92 0zM.44 30.48h7V10h-7z" />
        </symbol>
        <symbol viewBox="0 0 99 17" id="logo" xmlns="http://www.w3.org/2000/svg">
            <path d="M6.89 16.57a2.65 2.65 0 0 1-2.22-1.2 2.74 2.74 0 0 1-.24-2.53L9 2a2.65 2.65 0 0 1 4.68-.46A2.76 2.76 0 0 1 13.92 4L9.35 14.92a2.66 2.66 0 0 1-2.46 1.65zm9.35 0a2.65 2.65 0 0 1-2.24-1.2 2.74 2.74 0 0 1-.24-2.53L18.35 2A2.65 2.65 0 0 1 23 1.49 2.76 2.76 0 0 1 23.27 4L18.7 14.92a2.67 2.67 0 0 1-2.46 1.65zm12.42.14a2.35 2.35 0 0 1-2.33-2.36V2.65a2.33 2.33 0 1 1 4.66 0v11.7a2.35 2.35 0 0 1-2.33 2.36zm25.68 0A2.35 2.35 0 0 1 52 14.35V2.65a2.33 2.33 0 1 1 4.66 0v5.14l5.22-6.64a2.16 2.16 0 0 1 3.67.36 2.2 2.2 0 0 1-.21 2.3l-3.8 4.78 3.86 4.51a2.21 2.21 0 0 1 0 2.73 2.15 2.15 0 0 1-3.39 0l-5.34-6.41v4.93a2.35 2.35 0 0 1-2.33 2.36zm16.85 0A3.22 3.22 0 0 1 68 13.47v-10A3.22 3.22 0 0 1 71.19.29h8.13a2 2 0 0 1 2 2.05 2 2 0 0 1-2 2h-7v2.48h3.89a1.68 1.68 0 0 1 0 3.35h-3.94v2.45h7.35a2 2 0 0 1 0 4.09zm20 0a2.35 2.35 0 0 1-2.33-2.36v-10h-3.51a2.1 2.1 0 0 1-1.43-.53 2 2 0 0 1-.66-1.56 2.07 2.07 0 0 1 2.07-2h11.6a2.07 2.07 0 0 1 2.07 2 2.06 2.06 0 0 1-.66 1.56 2.1 2.1 0 0 1-1.43.53h-3.42v10a2.35 2.35 0 0 1-2.33 2.36zm-88.5-11A2.67 2.67 0 0 1 0 3 2.68 2.68 0 0 1 2.66.29 2.68 2.68 0 0 1 5.32 3a2.67 2.67 0 0 1-2.66 2.67zm45.13 5.22a2.32 2.32 0 0 1 .62 3.76A8.34 8.34 0 0 1 42.06 17a8.5 8.5 0 0 1 .54-17 8.36 8.36 0 0 1 5.82 2.36 2.31 2.31 0 0 1-.63 3.75 2.29 2.29 0 0 1-2.53-.45 3.8 3.8 0 0 0-2.66-1.07 3.91 3.91 0 0 0-.41 7.8 3.85 3.85 0 0 0 3.06-1 2.31 2.31 0 0 1 2.54-.5z" />
        </symbol>
        <symbol viewBox="0 0 12 32" id="long-arrow-down-o" xmlns="http://www.w3.org/2000/svg">
            <path d="M11.67 26.28L6 31.33l-5.67-5M6 0v31.32" fill="none" stroke="currentColor" stroke-miterlimit="10" />
        </symbol>
        <symbol viewBox="0 0 32 12" id="long-arrow-left-o" xmlns="http://www.w3.org/2000/svg">
            <path d="M5.67 11.67L.67 6 5.72.33M.68 6H32" fill="none" stroke="currentColor" stroke-miterlimit="10" />
        </symbol>
        <symbol viewBox="0 0 32 12" id="long-arrow-right-o" xmlns="http://www.w3.org/2000/svg">
            <path d="M26.28.33l5 5.67-5 5.67M0 6h31.32" fill="none" stroke="currentColor" stroke-miterlimit="10" />
        </symbol>
        <symbol viewBox="0 0 12 32" id="long-arrow-up-o" xmlns="http://www.w3.org/2000/svg">
            <path d="M.33 5.67L6 .67l5.67 5.05M6 .68V32" fill="none" stroke="currentColor" stroke-miterlimit="10" />
        </symbol>
        <symbol viewBox="0 0 32 32" id="medium" xmlns="http://www.w3.org/2000/svg">
            <path d="M0 0v32h32V0zm26.73 7.53L25 9.22a.7.7 0 0 0-.19.57v12.05a.69.69 0 0 0 .19.56l1.69 1.69v.38h-8.62v-.38l1.69-1.69c.19-.19.19-.19.19-.56v-10l-4.89 12.25h-.57L8.85 11.86v8.28c0 .38 0 .75.37.94l2.26 2.83v.37h-6.4v-.37l2.26-2.83a1.42 1.42 0 0 0 .38-.94v-9.41a1.1 1.1 0 0 0-.19-.73L5.27 7.53v-.38h6.21l4.9 10.54 4.33-10.54h6z" />
        </symbol>
        <symbol viewBox="0 0 32 32" id="search-o" xmlns="http://www.w3.org/2000/svg">
            <path d="M24.8 13.87A10.78 10.78 0 1 1 14 3.1a10.78 10.78 0 0 1 10.8 10.77zm3.95 15l-7.13-7.13" fill="none" stroke="currentColor" stroke-linecap="round" stroke-miterlimit="10" stroke-width="6" />
        </symbol>
        <symbol viewBox="0 0 32 30" id="star-o" xmlns="http://www.w3.org/2000/svg">
            <path fill="none" stroke-linejoin="round" stroke="currentColor" stroke-width="2" d="M16 1.11l3.47 10.65h11.34l-9.26 6.48 3.71 10.65L16 22.41l-9.26 6.48 3.71-10.65-9.26-6.48h11.34L16 1.11z" />
        </symbol>
        <symbol viewBox="0 0 32 28" id="telegram" xmlns="http://www.w3.org/2000/svg">
            <path d="M.52 13.31L7.9 16.1l2.92 9.2a.87.87 0 0 0 1.4.41l4.17-3.34a1.09 1.09 0 0 1 1.53 0l7.38 5.43a.85.85 0 0 0 1.39-.55L32 1.05a.83.83 0 0 0-1.11-1L.52 11.64a.93.93 0 0 0 0 1.67zm9.75 1.26l14.47-8.92c.28-.14.56.28.28.42l-11.83 11a3.34 3.34 0 0 0-.84 1.54l-.41 3.06c0 .42-.56.42-.7 0l-1.53-5.43a1.33 1.33 0 0 1 .56-1.67z" />
        </symbol>
        <symbol viewBox="0 0 32 32" id="times-o" xmlns="http://www.w3.org/2000/svg">
            <path fill="none" stroke="currentColor" stroke-miterlimit="10" stroke-width="4" d="M1.5 1.5l29 29M1.5 30.5l29-29" />
        </symbol>
        <symbol viewBox="0 0 32 26" id="twitter" xmlns="http://www.w3.org/2000/svg">
            <path d="M27.8 4.2a7.52 7.52 0 0 0 3-3.6 10.77 10.77 0 0 1-4.2 1.6A7.18 7.18 0 0 0 21.8 0a6.49 6.49 0 0 0-6.4 6.6 4.4 4.4 0 0 0 .2 1.6 19.64 19.64 0 0 1-13.4-7 6.64 6.64 0 0 0-1 3.2 6.65 6.65 0 0 0 3 5.6 7.41 7.41 0 0 1-3-.8 6.85 6.85 0 0 0 5.4 6.6H4.8a2.54 2.54 0 0 1-1.2-.2 6.62 6.62 0 0 0 6 4.6 13 13 0 0 1-8 2.8H0a19 19 0 0 0 10 3c12 0 18.6-10 18.6-18.6v-.8A27.25 27.25 0 0 0 32 3.2a41.87 41.87 0 0 1-4.2 1z" />
        </symbol>
        <symbol viewBox="0 0 32 26" id="vimeo" xmlns="http://www.w3.org/2000/svg">
            <path d="M27.4.13C30.53.13 32 2 32 5.28V6c-.18 2.94-2.21 7-6.62 12-4.23 5.14-8.09 7.9-11 7.9-1.83 0-3.31-1.65-4.59-4.78l-1.51-4.44L7 12.26c-.93-3.12-2-4.59-2.95-4.59A7.24 7.24 0 0 0 1.47 9L0 7.11l2.39-2L4.6 3.25C6.62 1.6 8.28.68 9.2.68h.36c2.21 0 3.5 1.65 4 4.78.37 1.84.55 3.31.73 4.41a15.31 15.31 0 0 0 .56 2.39c1.1 3 1.84 4.42 2.76 4.42.73 0 1.65-.92 2.94-2.94s2-3.5 2-4.42v-.55c0-1.29-.73-2-2.21-2a13 13 0 0 0-2.34.34c1.66-4.59 4.78-7 9-7z" />
        </symbol>
        <symbol viewBox="0 0 32 18.5" id="vk" xmlns="http://www.w3.org/2000/svg">
            <path d="M31.83 16.61c-.88-1.91-2.71-3.26-4.15-4.72-.74-.74-1.15-1.42-.57-2.4a35.72 35.72 0 0 1 2.28-3.06 22.25 22.25 0 0 0 2.13-3.23c.24-.47.71-1.32.39-1.84C31.43.58 28.78 1 28 1s-2.49-.3-3.18.16c-.47.31-.63 1.14-.84 1.63-.3.68-.63 1.35-1 2a17.53 17.53 0 0 1-2.19 3.31c-.27.31-.77.93-1.21.92-.71 0-.85-1-.89-1.49a30.29 30.29 0 0 1 0-3.69c0-1 .37-2.73-.66-3.34S15 .09 13.83.14a5.28 5.28 0 0 0-2.64.52c-.14.09-.55.39-.55.57s.23.2.52.3a1.69 1.69 0 0 1 1.05.81 7.8 7.8 0 0 1 .41 3.81c0 .72 0 2.51-.8 2.87-1.57.72-3.37-3.71-3.9-4.76-.34-.66-.66-1.32-1-2a2.13 2.13 0 0 0-.69-1.09 2.58 2.58 0 0 0-1.5-.24A34.72 34.72 0 0 0 .91 1C-.68 1.16.34 2.67.76 3.58q.94 2 2 4c2.32 4.11 5.24 8.73 9.95 10.27a10.11 10.11 0 0 0 3.37.43 5.22 5.22 0 0 0 2-.11c1-.44.56-1.9.82-2.75.43-1.43 1.38-1.6 2.43-.61 1.67 1.53 2.67 3.63 5.18 3.54 1.32-.05 2.65 0 4-.06.97-.05 1.85-.55 1.32-1.68z" />
        </symbol>
        <symbol viewBox="0 0 32 22.5" id="youtube" xmlns="http://www.w3.org/2000/svg">
            <path d="M31.33 3.55A4 4 0 0 0 28.5.72C26 .05 16 .05 16 .05S6 .05 3.5.72A4 4 0 0 0 .67 3.55a41.51 41.51 0 0 0-.67 7.7A41.51 41.51 0 0 0 .67 19a4 4 0 0 0 2.83 2.78c2.49.67 12.5.67 12.5.67s10 0 12.5-.67A4 4 0 0 0 31.33 19a41.51 41.51 0 0 0 .67-7.7 41.51 41.51 0 0 0-.67-7.75zM12.8 16.05v-9.6l8.31 4.8z" />
        </symbol>
        <symbol viewBox="0 0 9 16" id="faq-arrow">
            <path opacity="0.7" fill-rule="evenodd" clip-rule="evenodd" d="M2.1787 0L0.62207 1.86667L5.73672 8L0.62207 14.1333L2.1787 16L8.84998 8L2.1787 0Z" fill="#B80DFC"/>
        </symbol>
        <symbol viewBox="0 0 16 16" id="faq-arrow">
            <path opacity="0.7" fill-rule="evenodd" clip-rule="evenodd" d="M2.1787 0L0.62207 1.86667L5.73672 8L0.62207 14.1333L2.1787 16L8.84998 8L2.1787 0Z" fill="#B80DFC"/>
        </symbol>
        <symbol viewBox="0 0 16 16" id="check">
            <path d="M3 8L6.5 11.5L13 4" stroke="currentColor" stroke-width="2" stroke-linecap="round" stroke-linejoin="round" fill="none"/>
        </symbol>
        <symbol viewBox="0 0 10 18" id="fb">
            <path fill-rule="evenodd" clip-rule="evenodd" d="M9.34615 0.129808V2.98558H7.64784C6.31731 2.98558 6.06851 3.6238 6.06851 4.54327V6.58774H9.23798L8.81611 9.78966H6.06851V18H2.75841V9.78966H0V6.58774H2.75841V4.22957C2.75841 1.49279 4.4351 0 6.87981 0C8.04808 0 9.05409 0.0865385 9.34615 0.129808Z" fill="#3B5998"/>
        </symbol>
        <symbol viewBox="0 0 19 18" id="google">
          <path d="M4.48918 10.8775L3.86262 13.2165L1.57258 13.2649C0.888195 11.9956 0.5 10.5432 0.5 8.99986C0.5 7.50744 0.862953 6.10006 1.50631 4.86084H1.5068L3.54559 5.23462L4.4387 7.26117C4.25177 7.80613 4.14989 8.39112 4.14989 8.99986C4.14996 9.66051 4.26963 10.2935 4.48918 10.8775Z" fill="#FBBB00"/>
          <path d="M18.3422 7.31885C18.4455 7.86328 18.4994 8.42553 18.4994 9.00016C18.4994 9.6445 18.4317 10.273 18.3026 10.8793C17.8645 12.9424 16.7197 14.7438 15.1338 16.0187L15.1333 16.0182L12.5654 15.8872L12.2019 13.6184C13.2542 13.0012 14.0766 12.0354 14.5098 10.8793H9.69727V7.31885H14.58H18.3422Z" fill="#518EF8"/>
          <path d="M15.1336 16.0178L15.1341 16.0183C13.5917 17.258 11.6325 17.9998 9.49968 17.9998C6.07227 17.9998 3.09239 16.0841 1.57227 13.2649L4.48886 10.8774C5.24891 12.9059 7.20567 14.3499 9.49968 14.3499C10.4857 14.3499 11.4095 14.0833 12.2021 13.618L15.1336 16.0178Z" fill="#28B446"/>
          <path d="M15.2442 2.07197L12.3286 4.45894C11.5082 3.94615 10.5385 3.64992 9.49955 3.64992C7.15361 3.64992 5.16025 5.16013 4.43828 7.26131L1.50635 4.86098H1.50586C3.00373 1.97307 6.02119 0 9.49955 0C11.6833 0 13.6855 0.777867 15.2442 2.07197Z" fill="#F14336"/>
        </symbol>
        <symbol viewBox="0 0 32 33" id="ic-telegtam">
          <path d="M30.6641 9.79054C29.8081 7.79392 28.5869 6.0159 27.0346 4.50618C26.8341 4.31125 26.5171 4.31904 26.3261 4.52373C26.1353 4.72829 26.1429 5.05204 26.3433 5.24684C29.3448 8.16604 30.9979 12.1037 30.9979 16.3344C30.9979 24.7771 24.2699 31.6457 15.9999 31.6457C7.73 31.6457 1.00206 24.7771 1.00206 16.3344C1.00206 7.89167 7.73013 1.023 16 1.023C19.021 1.023 21.9331 1.93581 24.4214 3.6626C24.6502 3.82141 24.9618 3.76073 25.1174 3.5272C25.273 3.29355 25.2136 2.97541 24.9848 2.81659C22.3296 0.974001 19.2228 0 16 0C11.7262 0 7.70831 1.69903 4.68631 4.78425C1.66431 7.8694 0 11.9713 0 16.3344C0 20.6974 1.66431 24.7993 4.68631 27.8845C7.70831 30.9697 11.7262 32.6687 16 32.6687C20.2738 32.6687 24.2917 30.9697 27.3137 27.8845C30.3357 24.7993 32 20.6974 32 16.3344C32 14.0596 31.5505 11.8579 30.6641 9.79054Z" fill="black"/>
          <path d="M23.2706 6.92616L13.6346 11.5056C13.3837 11.6248 13.275 11.9291 13.3918 12.1853C13.5086 12.4414 13.8067 12.5525 14.0574 12.4331L20.0016 9.60819L17.1118 11.9965L10.4801 17.4772L6.85281 15.857L11.9357 13.4415C12.1866 13.3222 12.2952 13.0179 12.1784 12.7618C12.0617 12.5057 11.7635 12.3946 11.5128 12.5139L6.04156 15.1142C5.75068 15.2524 5.56706 15.5547 5.57443 15.8821C5.58162 16.2024 5.77125 16.4906 6.05868 16.619L10.1088 18.4279L11.295 25.6937C11.368 26.143 11.9639 26.2709 12.2083 25.8899L15.5731 20.6469L21.9363 23.6785C22.4461 23.9216 23.0528 23.5501 23.0856 22.9788L23.9821 7.4197C23.9831 7.40528 23.983 7.39047 23.9827 7.37599C23.9727 7.01389 23.5917 6.77455 23.2706 6.92616ZM11.8759 23.0295L11.1006 18.2805L18.9987 11.7532L12.9538 18.6724C12.8994 18.7347 12.8591 18.8131 12.8403 18.8944L11.8759 23.0295ZM12.9403 22.8827L13.6728 19.7417L14.6556 20.2099L12.9403 22.8827ZM15.2104 19.3453L14.15 18.8402L19.3668 12.8688L18.6123 14.0446L15.2104 19.3453ZM22.1021 22.6287L16.1279 19.7825L22.8715 9.27461L22.1021 22.6287Z" fill="black"/>
        </symbol>
        <symbol viewBox="0 0 34 34" id="ic-discord">
          <path fill-rule="evenodd" clip-rule="evenodd" d="M32.9997 16.5396C30.7387 18.8477 27.3799 19.919 19.2067 19.919C18.6362 19.919 18.6726 20.373 18.655 22.172C17.4357 21.2562 15.6007 20.6062 14.793 19.919C6.6198 19.919 3.26094 18.8477 1 16.5396C4.30369 20.889 8.72406 22.172 8.72406 22.172C8.72406 22.172 8.17234 24.7281 8.17234 28.3678C8.17234 32.0075 11.1384 33.437 13.1378 33.437C14.1806 33.437 15.8964 32.6935 15.8964 31.184V23.8618L18.655 24.425V31.184C18.655 32.6935 20.3708 33.437 21.4136 33.437C23.413 33.437 26.379 32.0075 26.379 28.3678C26.379 24.7281 25.8273 22.172 25.8273 22.172C25.8273 22.172 29.696 20.889 32.9997 16.5396Z" stroke="black" stroke-linecap="round" stroke-linejoin="round" fill="none"/>
          <path fill-rule="evenodd" clip-rule="evenodd" d="M15.3443 13.7235C15.3443 15.2792 14.1096 16.5397 12.5857 16.5397C11.0619 16.5397 9.82715 15.2792 9.82715 13.7235C9.82715 12.1678 11.0619 10.9072 12.5857 10.9072C14.1096 10.9072 15.3443 12.1678 15.3443 13.7235Z" stroke="black" stroke-linecap="round" stroke-linejoin="round" fill="none"/>
          <path fill-rule="evenodd" clip-rule="evenodd" d="M24.1725 13.7235C24.1725 15.2792 22.9377 16.5397 21.4139 16.5397C19.89 16.5397 18.6553 15.2792 18.6553 13.7235C18.6553 12.1678 19.89 10.9072 21.4139 10.9072C22.9377 10.9072 24.1725 12.1678 24.1725 13.7235Z" stroke="black" stroke-linecap="round" stroke-linejoin="round" fill="none"/>
          <path d="M2.10352 17.4943V3.02106C2.10352 1.77741 3.09219 0.768066 4.31039 0.768066H29.6894C30.9076 0.768066 31.8963 1.77741 31.8963 3.02106V17.4943" stroke="black" stroke-linecap="round" stroke-linejoin="round" fill="none"/>
        </symbol>
        <symbol viewBox="0 0 34 35" id="ic-whatsapp">
          <path fill-rule="evenodd" clip-rule="evenodd" d="M17 1C8.16359 1 1 8.3133 1 17.3344C1 20.7094 2.00303 23.8445 3.7211 26.4467L1 33.6688L8.27503 31.0158C10.7865 32.6876 13.779 33.6688 17 33.6688C25.8364 33.6688 33 26.3555 33 17.3344C33 8.3133 25.8364 1 17 1Z" stroke="black" stroke-linecap="round" stroke-linejoin="round"  fill="none"/>
          <path fill-rule="evenodd" clip-rule="evenodd" d="M13.7389 20.6628C15.4371 22.3965 19.1723 24.6563 20.9113 24.6563C22.6503 24.6563 24.172 23.131 24.172 21.9944V20.6628C24.172 20.6628 22.5687 19.8585 21.5634 19.3313C20.5582 18.8041 18.956 20.6628 18.956 20.6628C18.956 20.6628 17.1209 20.1221 15.6953 18.6655C14.2685 17.2101 13.7389 15.3367 13.7389 15.3367C13.7389 15.3367 15.5596 13.701 15.0431 12.6748C14.5267 11.6485 13.7389 10.0117 13.7389 10.0117H12.4346C11.3212 10.0117 9.82715 11.5652 9.82715 13.3405C9.82715 15.1159 12.0407 18.9291 13.7389 20.6628Z" stroke="black" stroke-linecap="round" stroke-linejoin="round" fill="none"/>
        </symbol>
        <symbol viewBox="0 0 34 35" id="ic-skype">
          <path fill-rule="evenodd" clip-rule="evenodd" d="M30.7362 18.6428C31.1026 14.6155 29.7773 10.4575 26.7571 7.37419C23.7359 4.28977 19.663 2.93682 15.7181 3.31082C12.251 0.128399 6.91692 0.229786 3.58116 3.63526C0.245402 7.03961 0.146091 12.4863 3.26447 16.0259C2.89702 20.0532 4.22338 24.2112 7.24354 27.2945C10.2637 30.3778 14.3377 31.7318 18.2826 31.3578C21.7485 34.5403 27.0826 34.4389 30.4195 31.0345C33.7542 27.6291 33.8535 22.1823 30.7362 18.6428Z" stroke="black" stroke-linecap="round" stroke-linejoin="round" fill="none"/>
          <path fill-rule="evenodd" clip-rule="evenodd" d="M17.5523 28.0358C17.464 28.0358 8.72461 27.842 8.72461 23.5297C8.72461 22.9078 9.21786 22.4032 9.82807 22.4032C10.4383 22.4032 10.9315 22.9078 10.9315 23.5297C10.9315 24.7734 14.9382 25.7827 17.5523 25.7827C18.7209 25.7827 23.0696 24.9378 23.0696 22.4032C23.0696 19.5226 20.8053 18.7341 18.072 18.0627C17.7807 17.9917 17.5093 17.9252 17.2643 17.8576C16.9597 17.7743 16.5857 17.6864 16.1685 17.5906C13.3845 16.9406 8.72461 15.8547 8.72461 12.2644C8.72461 8.56608 12.6099 6.63184 16.4488 6.63184C20.162 6.63184 23.0078 8.55706 23.0696 11.1109C23.0839 11.7327 22.6017 12.2487 21.9926 12.2644C21.9838 12.2644 21.975 12.2644 21.9661 12.2644C21.3692 12.2644 20.8781 11.7778 20.8627 11.165C20.8373 10.0869 19.0177 8.88488 16.4488 8.88488C14.3147 8.88488 10.9315 9.80187 10.9315 12.2644C10.9315 14.0579 14.6579 14.9264 16.6596 15.3939C17.1087 15.4987 17.5115 15.5922 17.8403 15.6834C18.0654 15.7454 18.317 15.8074 18.5862 15.8727C20.9245 16.445 25.2765 17.5118 25.2765 22.4032C25.2765 26.6175 19.9722 28.0358 17.5523 28.0358Z" stroke="black" stroke-linecap="round" stroke-linejoin="round" fill="none"/>
        </symbol>
        <symbol viewBox="0 0 36 37" id="ic-ok">
          <path fill="none" fill-rule="evenodd" clip-rule="evenodd" d="M24.7911 10.4224L14.5054 20.9575L11.0768 17.4458L8.33398 20.2551L14.5054 26.5762L27.534 13.2317L24.7911 10.4224Z" stroke="#303C42" stroke-linecap="round" stroke-linejoin="round"/>
          <path fill="none" fill-rule="evenodd" clip-rule="evenodd" d="M18 1C8.61131 1 1 8.83517 1 18.5C1 21.6621 1.82655 24.619 3.25103 27.1788L3.22993 27.1679C4.04124 28.4569 1 31.1724 1 31.1724C1 31.1724 3.78097 33.7684 6.51386 31.3752C9.54103 34.2379 13.5659 36 18 36C27.3887 36 35 28.1648 35 18.5C35 8.83517 27.3887 1 18 1Z" stroke="#303C42" stroke-linecap="round" stroke-linejoin="round"/>
        </symbol>
    </svg>
