<svg width="30" height="32" viewBox="0 0 30 32" fill="none" xmlns="http://www.w3.org/2000/svg">
<g clip-path="url(#clip0)">
<rect width="30.0003" height="32" fill="none"/>
<path fill-rule="evenodd" clip-rule="evenodd" d="M12.417 22.3424L12.417 9.61008L12.4169 9.61008C12.5077 5.37265 15.9755 1.94439 20.2401 1.94439C24.5619 1.94439 28.0653 5.45515 28.0653 9.7845C28.0653 11.2469 27.6655 12.6164 26.9695 13.7881L28.375 15.1657C29.4015 13.6192 29.9995 11.7629 29.9995 9.76649C29.9996 4.37383 25.6357 -2.35394e-09 20.2525 -5.25768e-09C14.92 -8.1341e-09 10.5877 4.30055 10.5066 9.61008L10.4974 9.61008L10.4974 22.6844L12.417 22.3424Z" fill="#B601FF"/>
<path fill-rule="evenodd" clip-rule="evenodd" d="M28.5787 27.2447C31.3556 22.6233 29.9384 16.6159 25.423 13.7503L25.4237 13.7492L25.2967 13.6713C25.2956 13.6707 25.2946 13.67 25.2936 13.6694L14.2325 6.88513L13.5279 8.72457L24.4263 15.409L24.4283 15.4058C28.0205 17.7167 29.1411 22.5169 26.9203 26.2129C24.6698 29.9582 19.8402 31.1512 16.1331 28.8776C14.8896 28.1148 13.9303 27.059 13.2895 25.851L11.3023 26.1829C12.0862 27.9416 13.3868 29.4871 15.1421 30.5638C19.7597 33.396 25.7755 31.9099 28.5787 27.2447Z" fill="#02F1ED"/>
<path fill-rule="evenodd" clip-rule="evenodd" d="M15.2897 23.9186L15.2904 23.9196L25.376 17.0343L23.7424 15.847L14.2204 22.3206L14.2224 22.3237C10.6645 24.6422 5.90704 23.6722 3.52443 20.1118C1.10985 16.5036 2.04842 11.6016 5.62073 9.16282C6.87197 8.30862 8.28031 7.86991 9.68603 7.81545L10.3317 5.88029C8.33834 5.80371 6.30378 6.34386 4.52442 7.55868C0.0746827 10.5964 -1.09441 16.7024 1.91313 21.1967C4.89249 25.6487 10.8525 26.8491 15.2897 23.9186Z" fill="#FF3064"/>
</g>
<defs>
<clipPath id="clip0">
<rect width="30.0003" height="32" fill="white"/>
</clipPath>
</defs>
</svg>
