<svg width="236" height="64" viewBox="0 0 236 64" fill="none" xmlns="http://www.w3.org/2000/svg">
<rect width="236" height="64" fill="white"/>
<path d="M96.24 35.64L95.52 36.42V39H91V24.16H95.52V31.24L98.66 28.06H104L99.48 32.8L104.36 39H98.9L96.24 35.64ZM111.596 27.86C113.516 27.86 114.983 28.2933 115.996 29.16C117.009 30.0133 117.516 31.3333 117.516 33.12V39H113.316V37.56C112.796 38.6533 111.763 39.2 110.216 39.2C109.349 39.2 108.609 39.0533 107.996 38.76C107.396 38.4533 106.936 38.0467 106.616 37.54C106.309 37.02 106.156 36.44 106.156 35.8C106.156 34.72 106.569 33.9 107.396 33.34C108.222 32.78 109.476 32.5 111.156 32.5H112.976C112.829 31.6467 112.143 31.22 110.916 31.22C110.423 31.22 109.922 31.3 109.416 31.46C108.909 31.6067 108.476 31.8133 108.116 32.08L106.676 29.1C107.302 28.7133 108.056 28.4133 108.936 28.2C109.829 27.9733 110.716 27.86 111.596 27.86ZM111.576 36.48C111.896 36.48 112.183 36.3933 112.436 36.22C112.689 36.0467 112.876 35.7867 112.996 35.44V34.68H111.876C110.956 34.68 110.496 34.9867 110.496 35.6C110.496 35.8533 110.589 36.0667 110.776 36.24C110.976 36.4 111.243 36.48 111.576 36.48ZM125.383 39.2C124.449 39.2 123.529 39.1 122.623 38.9C121.716 38.7 120.983 38.44 120.423 38.12L121.663 35.14C122.169 35.4467 122.769 35.6867 123.463 35.86C124.156 36.0333 124.829 36.12 125.483 36.12C126.003 36.12 126.363 36.08 126.563 36C126.776 35.9067 126.883 35.7733 126.883 35.6C126.883 35.4267 126.749 35.3067 126.483 35.24C126.229 35.1733 125.809 35.1067 125.223 35.04C124.329 34.9333 123.569 34.8 122.943 34.64C122.316 34.4667 121.763 34.14 121.283 33.66C120.816 33.18 120.583 32.4933 120.583 31.6C120.583 30.8933 120.796 30.26 121.223 29.7C121.649 29.14 122.283 28.6933 123.123 28.36C123.976 28.0267 124.996 27.86 126.183 27.86C127.009 27.86 127.816 27.94 128.603 28.1C129.403 28.2467 130.083 28.4667 130.643 28.76L129.403 31.74C128.443 31.2067 127.389 30.94 126.243 30.94C125.256 30.94 124.763 31.1133 124.763 31.46C124.763 31.6333 124.896 31.76 125.163 31.84C125.429 31.9067 125.849 31.9733 126.423 32.04C127.316 32.1467 128.069 32.2867 128.683 32.46C129.309 32.6333 129.856 32.96 130.323 33.44C130.803 33.92 131.043 34.6067 131.043 35.5C131.043 36.18 130.829 36.8 130.403 37.36C129.976 37.92 129.336 38.3667 128.483 38.7C127.629 39.0333 126.596 39.2 125.383 39.2ZM146.005 28.06V39H141.705V37.96C141.305 38.3733 140.838 38.6867 140.305 38.9C139.771 39.1 139.205 39.2 138.605 39.2C137.218 39.2 136.105 38.78 135.265 37.94C134.425 37.0867 134.005 35.8067 134.005 34.1V28.06H138.525V33.32C138.525 34.0667 138.645 34.6 138.885 34.92C139.125 35.24 139.478 35.4 139.945 35.4C140.385 35.4 140.751 35.2267 141.045 34.88C141.338 34.52 141.485 33.96 141.485 33.2V28.06H146.005ZM151.683 39.2C150.923 39.2 150.289 38.96 149.783 38.48C149.289 37.9867 149.043 37.36 149.043 36.6C149.043 35.84 149.289 35.2267 149.783 34.76C150.289 34.28 150.923 34.04 151.683 34.04C152.443 34.04 153.069 34.28 153.563 34.76C154.069 35.2267 154.323 35.84 154.323 36.6C154.323 37.36 154.069 37.9867 153.563 38.48C153.069 38.96 152.443 39.2 151.683 39.2ZM157.35 28.06H161.87V39H157.35V28.06ZM159.61 27.18C158.797 27.18 158.137 26.9667 157.63 26.54C157.137 26.1 156.89 25.5467 156.89 24.88C156.89 24.2133 157.137 23.6667 157.63 23.24C158.137 22.8 158.797 22.58 159.61 22.58C160.437 22.58 161.097 22.7867 161.59 23.2C162.084 23.6133 162.33 24.1467 162.33 24.8C162.33 25.4933 162.084 26.0667 161.59 26.52C161.097 26.96 160.437 27.18 159.61 27.18ZM171.287 39.2C170.074 39.2 168.98 38.96 168.007 38.48C167.047 37.9867 166.294 37.3133 165.747 36.46C165.2 35.5933 164.927 34.6133 164.927 33.52C164.927 32.4267 165.2 31.4533 165.747 30.6C166.294 29.7333 167.047 29.06 168.007 28.58C168.98 28.1 170.074 27.86 171.287 27.86C172.514 27.86 173.607 28.1 174.567 28.58C175.54 29.06 176.294 29.7333 176.827 30.6C177.374 31.4533 177.647 32.4267 177.647 33.52C177.647 34.6133 177.374 35.5933 176.827 36.46C176.294 37.3133 175.54 37.9867 174.567 38.48C173.607 38.96 172.514 39.2 171.287 39.2ZM171.287 35.68C171.807 35.68 172.234 35.4933 172.567 35.12C172.9 34.7333 173.067 34.2 173.067 33.52C173.067 32.84 172.9 32.3133 172.567 31.94C172.234 31.5667 171.807 31.38 171.287 31.38C170.767 31.38 170.34 31.5667 170.007 31.94C169.674 32.3133 169.507 32.84 169.507 33.52C169.507 34.2 169.674 34.7333 170.007 35.12C170.34 35.4933 170.767 35.68 171.287 35.68Z" fill="#B80DFC"/>
<path d="M185.495 22.16H189.495L182.895 41H178.895L185.495 22.16Z" fill="#FF3064"/>
<path fill-rule="evenodd" clip-rule="evenodd" d="M39.6362 42.0412L39.6363 21.5023L39.636 21.5023C39.7826 14.6668 45.3766 9.13655 52.256 9.13655C59.2275 9.13655 64.879 14.7999 64.879 21.7837C64.879 24.1428 64.2341 26.3519 63.1113 28.242L65.3786 30.4642C67.0344 27.9695 67.9992 24.9751 67.9992 21.7546C67.9992 13.0556 60.9597 6 52.2759 6C43.6739 6 36.6854 12.9373 36.5546 21.5023L36.5397 21.5023L36.5396 42.5928L39.6362 42.0412Z" fill="url(#paint0_linear)"/>
<path fill-rule="evenodd" clip-rule="evenodd" d="M65.7067 49.949C70.1861 42.4942 67.9 32.8034 60.6162 28.1808L60.6172 28.1791L60.4123 28.0534C60.4106 28.0524 60.409 28.0513 60.4073 28.0503L42.5643 17.1064L41.4277 20.0737L59.0083 30.8566L59.0115 30.8514C64.8062 34.5792 66.6139 42.3225 63.0315 48.2846C59.4011 54.3263 51.6103 56.2508 45.6303 52.5831C43.6243 51.3527 42.0769 49.6495 41.0432 47.7009L37.8375 48.2362C39.1022 51.0732 41.2002 53.5664 44.0317 55.3032C51.4804 59.8718 61.1847 57.4747 65.7067 49.949Z" fill="url(#paint1_linear)"/>
<path fill-rule="evenodd" clip-rule="evenodd" d="M44.2701 44.5837L44.2713 44.5854L60.5407 33.4785L57.9054 31.5631L42.5451 42.006L42.5485 42.011C36.8091 45.751 29.1347 44.1863 25.2912 38.4428C21.3962 32.6224 22.9102 24.7148 28.6728 20.7808C30.6913 19.4028 32.9631 18.6951 35.2307 18.6073L36.2723 15.4856C33.0567 15.3621 29.7747 16.2334 26.9044 18.1931C19.7263 23.0933 17.8404 32.943 22.692 40.1929C27.498 47.3746 37.1123 49.3111 44.2701 44.5837Z" fill="url(#paint2_linear)"/>
<defs>
<linearGradient id="paint0_linear" x1="20.3783" y1="32.1997" x2="51.838" y2="43.7732" gradientUnits="userSpaceOnUse">
<stop offset="0.447917" stop-color="#FF3568"/>
<stop offset="0.78125" stop-color="#C46FE6"/>
<stop offset="1" stop-color="#B600FF"/>
</linearGradient>
<linearGradient id="paint1_linear" x1="32.5212" y1="49.2928" x2="62.2695" y2="59.2992" gradientUnits="userSpaceOnUse">
<stop stop-color="#FF3064"/>
<stop offset="0.411458" stop-color="#FF5F87"/>
<stop offset="1" stop-color="#B600FF"/>
</linearGradient>
<linearGradient id="paint2_linear" x1="19.9994" y1="41.8764" x2="52.7637" y2="49.4514" gradientUnits="userSpaceOnUse">
<stop stop-color="#FF3064"/>
<stop offset="0.458333" stop-color="#C46FE6"/>
<stop offset="1" stop-color="#B600FF"/>
</linearGradient>
</defs>
</svg>
