<svg width="236" height="64" viewBox="0 0 236 64" fill="none" xmlns="http://www.w3.org/2000/svg">
<rect width="236" height="64" fill="none"/>
<path d="M96.24 35.64L95.52 36.42V39H91V24.16H95.52V31.24L98.66 28.06H104L99.48 32.8L104.36 39H98.9L96.24 35.64ZM111.596 27.86C113.516 27.86 114.983 28.2933 115.996 29.16C117.009 30.0133 117.516 31.3333 117.516 33.12V39H113.316V37.56C112.796 38.6533 111.763 39.2 110.216 39.2C109.349 39.2 108.609 39.0533 107.996 38.76C107.396 38.4533 106.936 38.0467 106.616 37.54C106.309 37.02 106.156 36.44 106.156 35.8C106.156 34.72 106.569 33.9 107.396 33.34C108.222 32.78 109.476 32.5 111.156 32.5H112.976C112.829 31.6467 112.143 31.22 110.916 31.22C110.423 31.22 109.922 31.3 109.416 31.46C108.909 31.6067 108.476 31.8133 108.116 32.08L106.676 29.1C107.302 28.7133 108.056 28.4133 108.936 28.2C109.829 27.9733 110.716 27.86 111.596 27.86ZM111.576 36.48C111.896 36.48 112.183 36.3933 112.436 36.22C112.689 36.0467 112.876 35.7867 112.996 35.44V34.68H111.876C110.956 34.68 110.496 34.9867 110.496 35.6C110.496 35.8533 110.589 36.0667 110.776 36.24C110.976 36.4 111.243 36.48 111.576 36.48ZM125.383 39.2C124.449 39.2 123.529 39.1 122.623 38.9C121.716 38.7 120.983 38.44 120.423 38.12L121.663 35.14C122.169 35.4467 122.769 35.6867 123.463 35.86C124.156 36.0333 124.829 36.12 125.483 36.12C126.003 36.12 126.363 36.08 126.563 36C126.776 35.9067 126.883 35.7733 126.883 35.6C126.883 35.4267 126.749 35.3067 126.483 35.24C126.229 35.1733 125.809 35.1067 125.223 35.04C124.329 34.9333 123.569 34.8 122.943 34.64C122.316 34.4667 121.763 34.14 121.283 33.66C120.816 33.18 120.583 32.4933 120.583 31.6C120.583 30.8933 120.796 30.26 121.223 29.7C121.649 29.14 122.283 28.6933 123.123 28.36C123.976 28.0267 124.996 27.86 126.183 27.86C127.009 27.86 127.816 27.94 128.603 28.1C129.403 28.2467 130.083 28.4667 130.643 28.76L129.403 31.74C128.443 31.2067 127.389 30.94 126.243 30.94C125.256 30.94 124.763 31.1133 124.763 31.46C124.763 31.6333 124.896 31.76 125.163 31.84C125.429 31.9067 125.849 31.9733 126.423 32.04C127.316 32.1467 128.069 32.2867 128.683 32.46C129.309 32.6333 129.856 32.96 130.323 33.44C130.803 33.92 131.043 34.6067 131.043 35.5C131.043 36.18 130.829 36.8 130.403 37.36C129.976 37.92 129.336 38.3667 128.483 38.7C127.629 39.0333 126.596 39.2 125.383 39.2ZM146.005 28.06V39H141.705V37.96C141.305 38.3733 140.838 38.6867 140.305 38.9C139.771 39.1 139.205 39.2 138.605 39.2C137.218 39.2 136.105 38.78 135.265 37.94C134.425 37.0867 134.005 35.8067 134.005 34.1V28.06H138.525V33.32C138.525 34.0667 138.645 34.6 138.885 34.92C139.125 35.24 139.478 35.4 139.945 35.4C140.385 35.4 140.751 35.2267 141.045 34.88C141.338 34.52 141.485 33.96 141.485 33.2V28.06H146.005ZM151.683 39.2C150.923 39.2 150.289 38.96 149.783 38.48C149.289 37.9867 149.043 37.36 149.043 36.6C149.043 35.84 149.289 35.2267 149.783 34.76C150.289 34.28 150.923 34.04 151.683 34.04C152.443 34.04 153.069 34.28 153.563 34.76C154.069 35.2267 154.323 35.84 154.323 36.6C154.323 37.36 154.069 37.9867 153.563 38.48C153.069 38.96 152.443 39.2 151.683 39.2ZM157.35 28.06H161.87V39H157.35V28.06ZM159.61 27.18C158.797 27.18 158.137 26.9667 157.63 26.54C157.137 26.1 156.89 25.5467 156.89 24.88C156.89 24.2133 157.137 23.6667 157.63 23.24C158.137 22.8 158.797 22.58 159.61 22.58C160.437 22.58 161.097 22.7867 161.59 23.2C162.084 23.6133 162.33 24.1467 162.33 24.8C162.33 25.4933 162.084 26.0667 161.59 26.52C161.097 26.96 160.437 27.18 159.61 27.18ZM171.287 39.2C170.074 39.2 168.98 38.96 168.007 38.48C167.047 37.9867 166.294 37.3133 165.747 36.46C165.2 35.5933 164.927 34.6133 164.927 33.52C164.927 32.4267 165.2 31.4533 165.747 30.6C166.294 29.7333 167.047 29.06 168.007 28.58C168.98 28.1 170.074 27.86 171.287 27.86C172.514 27.86 173.607 28.1 174.567 28.58C175.54 29.06 176.294 29.7333 176.827 30.6C177.374 31.4533 177.647 32.4267 177.647 33.52C177.647 34.6133 177.374 35.5933 176.827 36.46C176.294 37.3133 175.54 37.9867 174.567 38.48C173.607 38.96 172.514 39.2 171.287 39.2ZM171.287 35.68C171.807 35.68 172.234 35.4933 172.567 35.12C172.9 34.7333 173.067 34.2 173.067 33.52C173.067 32.84 172.9 32.3133 172.567 31.94C172.234 31.5667 171.807 31.38 171.287 31.38C170.767 31.38 170.34 31.5667 170.007 31.94C169.674 32.3133 169.507 32.84 169.507 33.52C169.507 34.2 169.674 34.7333 170.007 35.12C170.34 35.4933 170.767 35.68 171.287 35.68Z" fill="#B80DFC"/>
<path d="M185.495 22.16H189.495L182.895 41H178.895L185.495 22.16Z" fill="#FF3064"/>
<path fill-rule="evenodd" clip-rule="evenodd" d="M39.6365 42.0412L39.6366 21.5023L39.6364 21.5023C39.7829 14.6668 45.3769 9.13655 52.2563 9.13655C59.2279 9.13655 64.8793 14.7999 64.8793 21.7837C64.8793 24.1428 64.2344 26.3519 63.1116 28.242L65.3789 30.4642C67.0347 27.9695 67.9995 24.9751 67.9995 21.7546C67.9995 13.0556 60.96 6 52.2763 6C43.6742 6 36.6857 12.9373 36.5549 21.5023L36.54 21.5023L36.5399 42.5928L39.6365 42.0412Z" fill="#B601FF"/>
<path fill-rule="evenodd" clip-rule="evenodd" d="M65.7071 49.9492C70.1865 42.4944 67.9004 32.8037 60.6166 28.1811L60.6176 28.1793L60.4127 28.0537C60.411 28.0526 60.4094 28.0515 60.4077 28.0505L42.5647 17.1067L41.4281 20.0739L59.0087 30.8569L59.0119 30.8516C64.8066 34.5795 66.6143 42.3227 63.0319 48.2848C59.4015 54.3266 51.6107 56.251 45.6307 52.5833C43.6247 51.3529 42.0773 49.6497 41.0436 47.7012L37.8379 48.2364C39.1026 51.0734 41.2005 53.5667 44.0321 55.3034C51.4808 59.8721 61.1851 57.4749 65.7071 49.9492Z" fill="#02F1ED"/>
<path fill-rule="evenodd" clip-rule="evenodd" d="M44.2702 44.5837L44.2714 44.5854L60.5407 33.4785L57.9054 31.5631L42.5452 42.006L42.5486 42.011C36.8092 45.751 29.1347 44.1863 25.2913 38.4428C21.3963 32.6224 22.9103 24.7148 28.6729 20.7808C30.6913 19.4028 32.9632 18.6951 35.2308 18.6073L36.2724 15.4856C33.0568 15.3621 29.7748 16.2334 26.9044 18.1931C19.7264 23.0933 17.8405 32.943 22.692 40.1929C27.4981 47.3746 37.1124 49.3111 44.2702 44.5837Z" fill="#FF3064"/>
</svg>
