<svg width="133" height="29" viewBox="0 0 133 29" fill="none" xmlns="http://www.w3.org/2000/svg">
<g clip-path="url(#clip0)">
<rect width="132.839" height="28.4163" fill="white"/>
<path fill-rule="evenodd" clip-rule="evenodd" d="M10.636 19.5223L10.636 8.39708L10.6359 8.39708C10.7152 4.69451 13.7453 1.69896 17.4717 1.69896C21.2479 1.69896 24.3091 4.76659 24.3091 8.54949C24.3091 9.82733 23.9598 11.024 23.3516 12.0478L24.5797 13.2514C25.4766 11.9001 25.9992 10.2782 25.9992 8.53374C25.9992 3.82176 22.1862 -1.37122e-09 17.4825 -3.06271e-09C12.823 -4.73829e-09 9.03759 3.75773 8.96674 8.39708L8.95867 8.39708L8.95861 19.8211L10.636 19.5223Z" fill="url(#paint0_linear)"/>
<path fill-rule="evenodd" clip-rule="evenodd" d="M24.7578 23.8058C27.1842 19.7678 25.9459 14.5186 22.0005 12.0147L22.001 12.0138L21.8901 11.9457C21.8891 11.9452 21.8883 11.9446 21.8874 11.944L12.2224 6.01611L11.6067 7.62337L21.1296 13.4641L21.1313 13.4613C24.2701 15.4805 25.2492 19.6748 23.3088 22.9043C21.3423 26.1769 17.1223 27.2193 13.8831 25.2326C12.7966 24.5662 11.9584 23.6436 11.3985 22.5881L9.66206 22.878C10.3471 24.4148 11.4835 25.7653 13.0172 26.706C17.052 29.1807 22.3084 27.8822 24.7578 23.8058Z" fill="url(#paint1_linear)"/>
<path fill-rule="evenodd" clip-rule="evenodd" d="M13.1462 20.8995L13.1468 20.9005L21.9594 14.8842L20.532 13.8467L12.2118 19.5033L12.2137 19.506C9.10481 21.5318 4.94783 20.6843 2.86596 17.5732C0.756162 14.4205 1.57627 10.1372 4.69768 8.00627C5.79099 7.25988 7.02157 6.87654 8.24986 6.82896L8.81407 5.13805C7.07227 5.07115 5.29452 5.54311 3.73975 6.6046C-0.148339 9.25891 -1.16988 14.5942 1.45804 18.5212C4.06133 22.4113 9.26907 23.4602 13.1462 20.8995Z" fill="url(#paint2_linear)"/>
<path d="M41.744 16.984L41.312 17.452V19H38.6V10.096H41.312V14.344L43.196 12.436H46.4L43.688 15.28L46.616 19H43.34L41.744 16.984ZM51.6108 12.316C52.7628 12.316 53.6428 12.576 54.2508 13.096C54.8588 13.608 55.1628 14.4 55.1628 15.472V19H52.6428V18.136C52.3308 18.792 51.7108 19.12 50.7828 19.12C50.2628 19.12 49.8188 19.032 49.4508 18.856C49.0908 18.672 48.8148 18.428 48.6228 18.124C48.4388 17.812 48.3468 17.464 48.3468 17.08C48.3468 16.432 48.5948 15.94 49.0908 15.604C49.5868 15.268 50.3388 15.1 51.3468 15.1H52.4388C52.3508 14.588 51.9388 14.332 51.2028 14.332C50.9068 14.332 50.6068 14.38 50.3028 14.476C49.9988 14.564 49.7388 14.688 49.5228 14.848L48.6588 13.06C49.0348 12.828 49.4868 12.648 50.0148 12.52C50.5508 12.384 51.0828 12.316 51.6108 12.316ZM51.5988 17.488C51.7908 17.488 51.9628 17.436 52.1148 17.332C52.2668 17.228 52.3788 17.072 52.4508 16.864V16.408H51.7788C51.2268 16.408 50.9508 16.592 50.9508 16.96C50.9508 17.112 51.0068 17.24 51.1188 17.344C51.2388 17.44 51.3988 17.488 51.5988 17.488ZM60.5362 19.12C59.9762 19.12 59.4242 19.06 58.8802 18.94C58.3362 18.82 57.8962 18.664 57.5602 18.472L58.3042 16.684C58.6082 16.868 58.9682 17.012 59.3842 17.116C59.8002 17.22 60.2042 17.272 60.5962 17.272C60.9082 17.272 61.1242 17.248 61.2442 17.2C61.3722 17.144 61.4362 17.064 61.4362 16.96C61.4362 16.856 61.3562 16.784 61.1962 16.744C61.0442 16.704 60.7922 16.664 60.4402 16.624C59.9042 16.56 59.4482 16.48 59.0722 16.384C58.6962 16.28 58.3642 16.084 58.0762 15.796C57.7962 15.508 57.6562 15.096 57.6562 14.56C57.6562 14.136 57.7842 13.756 58.0402 13.42C58.2962 13.084 58.6762 12.816 59.1802 12.616C59.6922 12.416 60.3042 12.316 61.0162 12.316C61.5122 12.316 61.9962 12.364 62.4682 12.46C62.9482 12.548 63.3562 12.68 63.6922 12.856L62.9482 14.644C62.3722 14.324 61.7402 14.164 61.0522 14.164C60.4602 14.164 60.1642 14.268 60.1642 14.476C60.1642 14.58 60.2442 14.656 60.4042 14.704C60.5642 14.744 60.8162 14.784 61.1602 14.824C61.6962 14.888 62.1482 14.972 62.5162 15.076C62.8922 15.18 63.2202 15.376 63.5002 15.664C63.7882 15.952 63.9322 16.364 63.9322 16.9C63.9322 17.308 63.8042 17.68 63.5482 18.016C63.2922 18.352 62.9082 18.62 62.3962 18.82C61.8842 19.02 61.2642 19.12 60.5362 19.12ZM73.5627 12.436V19H70.9827V18.376C70.7427 18.624 70.4627 18.812 70.1427 18.94C69.8227 19.06 69.4827 19.12 69.1227 19.12C68.2907 19.12 67.6227 18.868 67.1187 18.364C66.6147 17.852 66.3627 17.084 66.3627 16.06V12.436H69.0747V15.592C69.0747 16.04 69.1467 16.36 69.2907 16.552C69.4347 16.744 69.6467 16.84 69.9267 16.84C70.1907 16.84 70.4107 16.736 70.5867 16.528C70.7627 16.312 70.8507 15.976 70.8507 15.52V12.436H73.5627ZM77.623 19.12C77.167 19.12 76.787 18.976 76.483 18.688C76.187 18.392 76.039 18.016 76.039 17.56C76.039 17.104 76.187 16.736 76.483 16.456C76.787 16.168 77.167 16.024 77.623 16.024C78.079 16.024 78.455 16.168 78.751 16.456C79.055 16.736 79.207 17.104 79.207 17.56C79.207 18.016 79.055 18.392 78.751 18.688C78.455 18.976 78.079 19.12 77.623 19.12ZM81.6768 12.436H84.3888V19H81.6768V12.436ZM83.0328 11.908C82.5448 11.908 82.1488 11.78 81.8448 11.524C81.5488 11.26 81.4008 10.928 81.4008 10.528C81.4008 10.128 81.5488 9.8 81.8448 9.544C82.1488 9.28 82.5448 9.148 83.0328 9.148C83.5288 9.148 83.9248 9.272 84.2208 9.52C84.5168 9.768 84.6648 10.088 84.6648 10.48C84.6648 10.896 84.5168 11.24 84.2208 11.512C83.9248 11.776 83.5288 11.908 83.0328 11.908ZM90.6922 19.12C89.9642 19.12 89.3082 18.976 88.7242 18.688C88.1482 18.392 87.6962 17.988 87.3682 17.476C87.0402 16.956 86.8762 16.368 86.8762 15.712C86.8762 15.056 87.0402 14.472 87.3682 13.96C87.6962 13.44 88.1482 13.036 88.7242 12.748C89.3082 12.46 89.9642 12.316 90.6922 12.316C91.4282 12.316 92.0842 12.46 92.6602 12.748C93.2442 13.036 93.6962 13.44 94.0162 13.96C94.3442 14.472 94.5082 15.056 94.5082 15.712C94.5082 16.368 94.3442 16.956 94.0162 17.476C93.6962 17.988 93.2442 18.392 92.6602 18.688C92.0842 18.976 91.4282 19.12 90.6922 19.12ZM90.6922 17.008C91.0042 17.008 91.2602 16.896 91.4602 16.672C91.6602 16.44 91.7602 16.12 91.7602 15.712C91.7602 15.304 91.6602 14.988 91.4602 14.764C91.2602 14.54 91.0042 14.428 90.6922 14.428C90.3802 14.428 90.1242 14.54 89.9242 14.764C89.7242 14.988 89.6242 15.304 89.6242 15.712C89.6242 16.12 89.7242 16.44 89.9242 16.672C90.1242 16.896 90.3802 17.008 90.6922 17.008Z" fill="#B80DFC"/>
<path d="M99.8704 8.896H102.27L98.3104 20.2H95.9104L99.8704 8.896Z" fill="#FF3064"/>
</g>
<defs>
<linearGradient id="paint0_linear" x1="0.204576" y1="14.1915" x2="17.2452" y2="20.4605" gradientUnits="userSpaceOnUse">
<stop offset="0.447917" stop-color="#FF3568"/>
<stop offset="0.78125" stop-color="#C46FE6"/>
<stop offset="1" stop-color="#B600FF"/>
</linearGradient>
<linearGradient id="paint1_linear" x1="6.78238" y1="23.4504" x2="22.896" y2="28.8705" gradientUnits="userSpaceOnUse">
<stop stop-color="#FF3064"/>
<stop offset="0.411458" stop-color="#FF5F87"/>
<stop offset="1" stop-color="#B600FF"/>
</linearGradient>
<linearGradient id="paint2_linear" x1="-0.000430547" y1="19.4331" x2="17.7469" y2="23.5362" gradientUnits="userSpaceOnUse">
<stop stop-color="#FF3064"/>
<stop offset="0.458333" stop-color="#C46FE6"/>
<stop offset="1" stop-color="#B600FF"/>
</linearGradient>
<clipPath id="clip0">
<rect width="132.839" height="28.4163" fill="white"/>
</clipPath>
</defs>
</svg>
