<svg width="18" height="20" viewBox="0 0 18 20" fill="none" xmlns="http://www.w3.org/2000/svg">
<path fill-rule="evenodd" clip-rule="evenodd" d="M7.16122 13.5154L7.16126 5.81336L7.16115 5.81336C7.21611 3.25004 9.31385 1.1762 11.8936 1.1762C14.508 1.1762 16.6273 3.29995 16.6273 5.91888C16.6273 6.80354 16.3854 7.63197 15.9644 8.34076L16.8146 9.17406C17.4355 8.23855 17.7973 7.11565 17.7973 5.90798C17.7973 2.64583 15.1575 -8.55765e-10 11.9011 -1.91141e-09C8.67535 -2.95711e-09 6.05467 2.60151 6.00561 5.81336L6.00002 5.81336L5.99998 13.7223L7.16122 13.5154Z" fill="url(#paint0_linear)"/>
<path fill-rule="evenodd" clip-rule="evenodd" d="M17.14 16.481C18.8198 13.6854 17.9625 10.0514 15.2311 8.31793L15.2315 8.31728L15.1547 8.27015C15.154 8.26977 15.1534 8.26936 15.1528 8.26898L8.46167 4.16504L8.03544 5.27776L14.6282 9.32135L14.6294 9.31939C16.8024 10.7173 17.4802 13.6211 16.1368 15.8568C14.7754 18.1225 11.8539 18.8442 9.61139 17.4688C8.85916 17.0074 8.27889 16.3687 7.89124 15.638L6.68911 15.8387C7.16335 16.9026 7.95009 17.8375 9.01193 18.4888C11.8052 20.2021 15.4443 19.3031 17.14 16.481Z" fill="url(#paint1_linear)"/>
<path fill-rule="evenodd" clip-rule="evenodd" d="M9.10133 14.4688L9.10176 14.4695L15.2028 10.3044L14.2145 9.58611L8.45445 13.5022L8.45571 13.5041C6.30343 14.9066 3.42552 14.3198 1.98423 12.166C0.5236 9.98333 1.09137 7.01801 3.25235 5.54272C4.00925 5.026 4.86119 4.76061 5.71155 4.72766L6.10216 3.55704C4.8963 3.51072 3.66554 3.83746 2.58916 4.57234C-0.10259 6.40994 -0.809813 10.1036 1.00951 12.8223C2.81179 15.5154 6.41715 16.2416 9.10133 14.4688Z" fill="url(#paint2_linear)"/>
<defs>
<linearGradient id="paint0_linear" x1="-0.060506" y1="9.8249" x2="11.7369" y2="14.165" gradientUnits="userSpaceOnUse">
<stop offset="0.447917" stop-color="#FF3568"/>
<stop offset="0.78125" stop-color="#C46FE6"/>
<stop offset="1" stop-color="#B600FF"/>
</linearGradient>
<linearGradient id="paint1_linear" x1="4.69549" y1="16.2349" x2="15.8511" y2="19.9873" gradientUnits="userSpaceOnUse">
<stop stop-color="#FF3064"/>
<stop offset="0.411458" stop-color="#FF5F87"/>
<stop offset="1" stop-color="#B600FF"/>
</linearGradient>
<linearGradient id="paint2_linear" x1="-0.000196203" y1="13.4536" x2="12.2864" y2="16.2942" gradientUnits="userSpaceOnUse">
<stop stop-color="#FF3064"/>
<stop offset="0.458333" stop-color="#C46FE6"/>
<stop offset="1" stop-color="#B600FF"/>
</linearGradient>
</defs>
</svg>
