<svg width="133" height="29" viewBox="0 0 133 29" fill="none" xmlns="http://www.w3.org/2000/svg">
<g clip-path="url(#clip0)">
<rect width="132.839" height="28.4163" fill="none"/>
<path d="M42.368 16.648L41.864 17.194V19H38.7V8.612H41.864V13.568L44.062 11.342H47.8L44.636 14.66L48.052 19H44.23L42.368 16.648ZM53.6071 11.202C54.9511 11.202 55.9778 11.5053 56.6871 12.112C57.3964 12.7093 57.7511 13.6333 57.7511 14.884V19H54.8111V17.992C54.4471 18.7573 53.7237 19.14 52.6411 19.14C52.0344 19.14 51.5164 19.0373 51.0871 18.832C50.6671 18.6173 50.3451 18.3327 50.1211 17.978C49.9064 17.614 49.7991 17.208 49.7991 16.76C49.7991 16.004 50.0884 15.43 50.6671 15.038C51.2457 14.646 52.1231 14.45 53.2991 14.45H54.5731C54.4704 13.8527 53.9898 13.554 53.1311 13.554C52.7857 13.554 52.4357 13.61 52.0811 13.722C51.7264 13.8247 51.4231 13.9693 51.1711 14.156L50.1631 12.07C50.6017 11.7993 51.1291 11.5893 51.7451 11.44C52.3704 11.2813 52.9911 11.202 53.6071 11.202ZM53.5931 17.236C53.8171 17.236 54.0178 17.1753 54.1951 17.054C54.3724 16.9327 54.5031 16.7507 54.5871 16.508V15.976H53.8031C53.1591 15.976 52.8371 16.1907 52.8371 16.62C52.8371 16.7973 52.9024 16.9467 53.0331 17.068C53.1731 17.18 53.3598 17.236 53.5931 17.236ZM63.7478 19.14C63.0945 19.14 62.4505 19.07 61.8158 18.93C61.1812 18.79 60.6678 18.608 60.2758 18.384L61.1438 16.298C61.4985 16.5127 61.9185 16.6807 62.4038 16.802C62.8892 16.9233 63.3605 16.984 63.8178 16.984C64.1818 16.984 64.4338 16.956 64.5738 16.9C64.7232 16.8347 64.7978 16.7413 64.7978 16.62C64.7978 16.4987 64.7045 16.4147 64.5178 16.368C64.3405 16.3213 64.0465 16.2747 63.6358 16.228C63.0105 16.1533 62.4785 16.06 62.0398 15.948C61.6012 15.8267 61.2138 15.598 60.8778 15.262C60.5512 14.926 60.3878 14.4453 60.3878 13.82C60.3878 13.3253 60.5372 12.882 60.8358 12.49C61.1345 12.098 61.5778 11.7853 62.1658 11.552C62.7632 11.3187 63.4772 11.202 64.3078 11.202C64.8865 11.202 65.4512 11.258 66.0018 11.37C66.5618 11.4727 67.0378 11.6267 67.4298 11.832L66.5618 13.918C65.8898 13.5447 65.1525 13.358 64.3498 13.358C63.6592 13.358 63.3138 13.4793 63.3138 13.722C63.3138 13.8433 63.4072 13.932 63.5938 13.988C63.7805 14.0347 64.0745 14.0813 64.4758 14.128C65.1012 14.2027 65.6285 14.3007 66.0578 14.422C66.4965 14.5433 66.8792 14.772 67.2058 15.108C67.5418 15.444 67.7098 15.9247 67.7098 16.55C67.7098 17.026 67.5605 17.46 67.2618 17.852C66.9632 18.244 66.5152 18.5567 65.9178 18.79C65.3205 19.0233 64.5972 19.14 63.7478 19.14ZM78.6732 11.342V19H75.6632V18.272C75.3832 18.5613 75.0565 18.7807 74.6832 18.93C74.3098 19.07 73.9132 19.14 73.4932 19.14C72.5225 19.14 71.7432 18.846 71.1552 18.258C70.5672 17.6607 70.2732 16.7647 70.2732 15.57V11.342H73.4372V15.024C73.4372 15.5467 73.5212 15.92 73.6892 16.144C73.8572 16.368 74.1045 16.48 74.4312 16.48C74.7392 16.48 74.9958 16.3587 75.2012 16.116C75.4065 15.864 75.5092 15.472 75.5092 14.94V11.342H78.6732ZM83.1379 19.14C82.6059 19.14 82.1626 18.972 81.8079 18.636C81.4626 18.2907 81.2899 17.852 81.2899 17.32C81.2899 16.788 81.4626 16.3587 81.8079 16.032C82.1626 15.696 82.6059 15.528 83.1379 15.528C83.6699 15.528 84.1086 15.696 84.4539 16.032C84.8086 16.3587 84.9859 16.788 84.9859 17.32C84.9859 17.852 84.8086 18.2907 84.4539 18.636C84.1086 18.972 83.6699 19.14 83.1379 19.14ZM87.5952 11.342H90.7592V19H87.5952V11.342ZM89.1772 10.726C88.6078 10.726 88.1458 10.5767 87.7912 10.278C87.4458 9.97 87.2732 9.58267 87.2732 9.116C87.2732 8.64933 87.4458 8.26667 87.7912 7.968C88.1458 7.66 88.6078 7.506 89.1772 7.506C89.7558 7.506 90.2178 7.65067 90.5632 7.94C90.9085 8.22933 91.0812 8.60267 91.0812 9.06C91.0812 9.54533 90.9085 9.94667 90.5632 10.264C90.2178 10.572 89.7558 10.726 89.1772 10.726ZM97.8409 19.14C96.9916 19.14 96.2263 18.972 95.5449 18.636C94.8729 18.2907 94.3456 17.8193 93.9629 17.222C93.5803 16.6153 93.3889 15.9293 93.3889 15.164C93.3889 14.3987 93.5803 13.7173 93.9629 13.12C94.3456 12.5133 94.8729 12.042 95.5449 11.706C96.2263 11.37 96.9916 11.202 97.8409 11.202C98.6996 11.202 99.4649 11.37 100.137 11.706C100.818 12.042 101.346 12.5133 101.719 13.12C102.102 13.7173 102.293 14.3987 102.293 15.164C102.293 15.9293 102.102 16.6153 101.719 17.222C101.346 17.8193 100.818 18.2907 100.137 18.636C99.4649 18.972 98.6996 19.14 97.8409 19.14ZM97.8409 16.676C98.2049 16.676 98.5036 16.5453 98.7369 16.284C98.9703 16.0133 99.0869 15.64 99.0869 15.164C99.0869 14.688 98.9703 14.3193 98.7369 14.058C98.5036 13.7967 98.2049 13.666 97.8409 13.666C97.4769 13.666 97.1783 13.7967 96.9449 14.058C96.7116 14.3193 96.5949 14.688 96.5949 15.164C96.5949 15.64 96.7116 16.0133 96.9449 16.284C97.1783 16.5453 97.4769 16.676 97.8409 16.676Z" fill="#B80DFC"/>
<path d="M108.277 7.212H111.077L106.457 20.4H103.657L108.277 7.212Z" fill="#FF3064"/>
<path fill-rule="evenodd" clip-rule="evenodd" d="M10.636 19.5223L10.636 8.39708L10.6359 8.39708C10.7153 4.69451 13.7453 1.69896 17.4717 1.69896C21.2479 1.69896 24.3092 4.76659 24.3092 8.54949C24.3091 9.82733 23.9598 11.024 23.3516 12.0478L24.5798 13.2514C25.4767 11.9001 25.9992 10.2782 25.9993 8.53374C25.9993 3.82176 22.1862 -1.37122e-09 17.4825 -3.06271e-09C12.8231 -4.73829e-09 9.03763 3.75773 8.96677 8.39708L8.9587 8.39708L8.95864 19.8211L10.636 19.5223Z" fill="#B601FF"/>
<path fill-rule="evenodd" clip-rule="evenodd" d="M24.7578 23.8057C27.1842 19.7677 25.9459 14.5185 22.0005 12.0146L22.001 12.0137L21.89 11.9456C21.8891 11.945 21.8882 11.9445 21.8873 11.9439L12.2224 6.01599L11.6067 7.62325L21.1296 13.464L21.1313 13.4612C24.27 15.4804 25.2492 19.6747 23.3087 22.9041C21.3423 26.1768 17.1223 27.2192 13.8831 25.2325C12.7965 24.566 11.9584 23.6435 11.3984 22.588L9.66203 22.8779C10.347 24.4146 11.4835 25.7651 13.0172 26.7059C17.0519 29.1806 22.3084 27.8821 24.7578 23.8057Z" fill="#02F1ED"/>
<path fill-rule="evenodd" clip-rule="evenodd" d="M13.1463 20.8995L13.147 20.9005L21.9595 14.8842L20.5321 13.8467L12.212 19.5033L12.2138 19.506C9.10494 21.5318 4.94795 20.6843 2.86608 17.5732C0.756283 14.4205 1.57639 10.1372 4.6978 8.00627C5.79111 7.25988 7.02169 6.87654 8.24998 6.82896L8.81419 5.13805C7.07239 5.07115 5.29464 5.54311 3.73987 6.6046C-0.148217 9.25891 -1.16976 14.5942 1.45816 18.5212C4.06145 22.4113 9.26919 23.4602 13.1463 20.8995Z" fill="#FF3064"/>
</g>
<defs>
<clipPath id="clip0">
<rect width="132.839" height="28.4163" fill="white"/>
</clipPath>
</defs>
</svg>
